<svg width="63" height="58" viewBox="0 0 63 58" fill="none" xmlns="http://www.w3.org/2000/svg"><path d="M5.14576 34.9497C1.56512 30.1722 -1.25735 23.4203 1.97879 18.407C5.21493 13.3937 12.4032 13.3315 17.764 15.6316C23.1248 17.9317 27.4855 21.8913 31.7717 25.7551C32.4571 20.5224 33.6813 15.3795 35.4243 10.4106C36.6044 7.03067 38.1872 3.52981 41.1405 1.5646C46.2419 -1.8188 53.4747 0.8437 57.4398 5.57927C59.731 8.35977 61.2642 11.6996 61.8856 15.2636C63.1337 22.3412 60.6549 29.5153 57.5878 35.9683C54.8884 41.6394 51.708 47.0599 48.0821 52.1684C46.9585 53.9726 45.4575 55.5033 43.6852 56.6525C38.9815 59.2748 27.4907 52.8357 23.092 50.4382C16.0936 46.6315 9.97383 41.3501 5.14576 34.9497Z" fill="#FF8000"/></svg>