<svg width="55" height="54" viewBox="0 0 55 54" fill="none" xmlns="http://www.w3.org/2000/svg">
<ellipse cx="26.5" cy="27" rx="22.5" ry="10" fill="#EFD7C7"/>
<path d="M54.0663 26.844C54.0958 32.1889 52.5355 37.4224 49.5831 41.8809C46.6307 46.3395 42.4191 49.8224 37.4821 51.8884C32.545 53.9543 27.1049 54.5102 21.8511 53.4855C16.5974 52.4609 11.7665 49.9019 7.9709 46.1329C4.17527 42.3638 1.58573 37.5544 0.530479 32.3143C-0.52477 27.0741 0.00180578 21.6391 2.04343 16.6981C4.08506 11.7571 7.54982 7.53248 11.9986 4.5598C16.4474 1.58713 21.6799 0.00017718 27.0329 9.56026e-05C34.1826 -0.0189165 41.0471 2.7984 46.1166 7.83244C51.1862 12.8665 54.0457 19.705 54.0663 26.844ZM26.8179 37.0387C35.2893 37.0387 44.3343 31.2941 48.11 28.6038C48.3536 28.4588 48.5578 28.2564 48.7047 28.0142C48.8517 27.772 48.9368 27.4976 48.9528 27.2149C48.9687 26.9322 48.9149 26.6499 48.7961 26.3928C48.6772 26.1358 48.497 25.9117 48.2713 25.7404C44.7883 22.7935 36.1854 16.5419 26.1308 16.8223C16.1838 17.0967 8.44716 22.9248 5.27485 25.7404C5.05703 25.9139 4.88469 26.1377 4.77263 26.3925C4.66058 26.6472 4.61216 26.9253 4.63155 27.2029C4.65095 27.4804 4.73756 27.7491 4.88396 27.9859C5.03035 28.2226 5.23213 28.4203 5.47197 28.562C9.18196 31.2404 18.2807 37.0387 26.788 37.0387H26.8179Z" fill="#262626"/>
<path d="M27.081 35.9769C31.918 35.9769 35.8392 31.8906 35.8392 26.8499C35.8392 21.8093 31.918 17.723 27.081 17.723C22.2439 17.723 18.3228 21.8093 18.3228 26.8499C18.3228 31.8906 22.2439 35.9769 27.081 35.9769Z" fill="url(#paint0_linear_141_228)" stroke="#272525" stroke-width="3" stroke-miterlimit="10"/>
<g style="mix-blend-mode:darken" opacity="0.28">
<path d="M27.081 35.9769C31.918 35.9769 35.8392 31.8906 35.8392 26.8499C35.8392 21.8093 31.918 17.723 27.081 17.723C22.2439 17.723 18.3228 21.8093 18.3228 26.8499C18.3228 31.8906 22.2439 35.9769 27.081 35.9769Z" fill="#272525"/>
<path d="M27.081 35.9769C31.918 35.9769 35.8392 31.8906 35.8392 26.8499C35.8392 21.8093 31.918 17.723 27.081 17.723C22.2439 17.723 18.3228 21.8093 18.3228 26.8499C18.3228 31.8906 22.2439 35.9769 27.081 35.9769Z" stroke="#272525" stroke-width="3" stroke-miterlimit="10"/>
</g>
<path d="M27.0809 32.5707C30.1131 32.5707 32.5712 30.0094 32.5712 26.85C32.5712 23.6905 30.1131 21.1292 27.0809 21.1292C24.0487 21.1292 21.5906 23.6905 21.5906 26.85C21.5906 30.0094 24.0487 32.5707 27.0809 32.5707Z" fill="#272525"/>
<path d="M23.9742 24.613C25.0696 24.613 25.9576 23.6889 25.9576 22.549C25.9576 21.4091 25.0696 20.485 23.9742 20.485C22.8787 20.485 21.9907 21.4091 21.9907 22.549C21.9907 23.6889 22.8787 24.613 23.9742 24.613Z" fill="#E0DBC0"/>
<path opacity="0.29" d="M30.2472 33.7458C31.7386 33.7458 32.9476 32.4879 32.9476 30.9362C32.9476 29.3845 31.7386 28.1265 30.2472 28.1265C28.7559 28.1265 27.5469 29.3845 27.5469 30.9362C27.5469 32.4879 28.7559 33.7458 30.2472 33.7458Z" fill="#ABD5CB"/>
<defs>
<linearGradient id="paint0_linear_141_228" x1="18.3228" y1="26.8499" x2="35.8392" y2="26.8499" gradientUnits="userSpaceOnUse">
<stop stop-color="#E40303"/>
<stop offset="0.21" stop-color="#FF8C00"/>
<stop offset="0.46" stop-color="#FFED00"/>
<stop offset="0.61" stop-color="#008026"/>
<stop offset="0.81" stop-color="#24408E"/>
<stop offset="0.92" stop-color="#732982"/>
</linearGradient>
</defs>
</svg>
