<svg width="399" height="217" viewBox="0 0 399 217" fill="none" xmlns="http://www.w3.org/2000/svg"><g clip-path="url(#clip0_40_109)"><path d="M78.0112 48.2057V50.6574C74.1399 50.8722 70.9995 51.4408 68.5899 52.3635C66.1136 53.3312 63.898 54.8632 62.1198 56.8375C59.4752 59.6769 57.8462 63.618 57.2329 68.6607C56.8038 72.9819 56.6043 77.3228 56.6355 81.6651V160.174C56.5566 164.841 56.8282 169.507 57.448 174.133C57.9936 177.545 58.8758 180.28 60.0945 182.336C61.7227 185.053 64.0909 187.252 66.9231 188.677C69.711 190.061 73.411 190.896 78.0231 191.182V193.634H12.9221V191.194C16.8611 190.979 20.0354 190.383 22.445 189.404C24.878 188.436 27.0565 186.924 28.8135 184.984C31.0577 182.576 32.5755 179.584 33.1926 176.352C33.9414 172.877 34.3158 167.478 34.3158 160.157V81.6651C34.3158 74.3476 33.9414 68.949 33.1926 65.4693C32.5755 62.2378 31.0577 59.2459 28.8135 56.8375C27.0733 54.8447 24.8702 53.3084 22.3972 52.3635C19.3421 51.3247 16.1482 50.7497 12.9221 50.6574V48.2057H78.0112Z" fill="#262626"/><path d="M131.725 122.468V160.174C131.725 167.42 132.124 172.801 132.92 176.317C133.554 179.547 135.048 182.548 137.246 185.002C139.003 186.942 141.181 188.454 143.614 189.422C146.004 190.381 149.178 190.977 153.137 191.212V193.664H87.9941V191.194C91.9292 190.979 95.1035 190.383 97.517 189.405C99.95 188.436 102.129 186.924 103.886 184.984C106.13 182.576 107.648 179.584 108.265 176.352C109.013 172.877 109.388 167.478 109.388 160.157V81.6651C109.388 74.3476 109.013 68.949 108.265 65.4693C107.648 62.2378 106.13 59.2459 103.886 56.8375C102.145 54.8447 99.9423 53.3084 97.4693 52.3635C94.4139 51.3256 91.2201 50.7505 87.9941 50.6574V48.2057H137.102C145.319 48.2057 150.717 48.2415 153.298 48.313C163.825 48.8101 172.075 50.3015 178.049 52.787C184.776 55.6305 189.99 59.8758 193.69 65.523C197.39 71.1701 199.238 77.722 199.234 85.1787C199.234 96.2622 195.227 105.141 187.214 111.814C184.755 113.816 182.028 115.466 179.113 116.717C175.273 118.272 171.302 119.484 167.248 120.338C171.323 122.116 174.345 123.963 176.317 125.88C178.001 127.533 179.441 129.417 180.594 131.475C181.881 133.714 183.815 137.673 186.395 143.352C192.441 156.353 197.01 165.853 200.1 171.855C203.191 177.856 205.78 182.206 207.867 184.907C209.563 187.106 211.21 188.633 212.807 189.488C214.869 190.47 217.1 191.049 219.379 191.194V193.646H185.577C183.88 189.737 182.793 187.249 182.315 186.183L175.188 169.248C171.365 160.032 167.048 151.029 162.254 142.279C157.904 134.536 153.922 129.242 150.305 126.399C148.547 125.021 146.542 123.99 144.397 123.363C141.862 122.705 139.249 122.4 136.63 122.456L131.725 122.468ZM131.725 120.123H135.591C144.014 120.123 150.042 119.626 153.675 118.632C157.307 117.638 160.708 115.578 163.879 112.452C171.012 105.353 174.578 96.5465 174.578 86.0317C174.613 80.6021 173.556 75.2207 171.472 70.2057C169.584 65.5304 166.637 61.3551 162.863 58.0067C159.921 55.5498 156.442 53.8171 152.707 52.9481C148.768 51.9857 143.166 51.5065 135.901 51.5104H131.719L131.725 120.123Z" fill="#262626"/><path d="M288.154 48.2057V50.6574C284.283 50.8722 281.141 51.4408 278.727 52.3635C276.253 53.3328 274.04 54.8647 272.263 56.8375C269.61 59.6769 267.979 63.618 267.37 68.6607C266.941 72.9819 266.742 77.3228 266.773 81.6651V160.174C266.694 164.841 266.965 169.507 267.585 174.133C268.127 177.545 269.011 180.28 270.238 182.336C271.864 185.052 274.23 187.251 277.06 188.677C279.848 190.061 283.55 190.896 288.166 191.182V193.634H223.047V191.194C226.986 190.979 230.161 190.383 232.57 189.404C235.001 188.434 237.177 186.922 238.933 184.984C241.176 182.575 242.696 179.583 243.318 176.352C244.059 172.877 244.431 167.478 244.435 160.157V81.6651C244.435 74.3476 244.063 68.949 243.318 65.4693C242.696 62.2382 241.176 59.247 238.933 56.8375C237.193 54.8447 234.99 53.3084 232.517 52.3635C229.463 51.3253 226.271 50.7502 223.047 50.6574V48.2057H288.154Z" fill="#262626"/><path d="M303.126 193.216L303.43 149.216L305.772 149.318C308.628 160.52 312.013 169.343 315.928 175.786C323.364 187.692 332.678 193.646 343.87 193.646C351.676 193.646 358.128 190.91 363.226 185.438C368.324 179.965 370.869 173.042 370.861 164.666C370.841 160.92 370.275 157.197 369.183 153.613C368.206 150.158 366.675 146.884 364.648 143.919C362.344 140.808 359.542 138.098 356.356 135.896C352.771 133.339 347.321 130.107 340.005 126.202C334.914 123.59 329.966 120.709 325.183 117.57C322.125 115.544 319.337 113.138 316.884 110.412C311.042 103.735 308.12 95.602 308.12 86.0138C308.119 80.1657 309.285 74.376 311.549 68.9828C313.706 63.6822 316.95 58.8909 321.072 54.9166C328.273 47.9611 336.794 44.4813 346.636 44.4773C349.621 44.4541 352.599 44.7946 355.502 45.4915C359.234 46.5326 362.877 47.867 366.399 49.4822C369.792 50.906 372.102 51.8127 373.329 52.2024C374.377 52.5656 375.475 52.7667 376.585 52.799C378.974 52.799 380.567 50.9875 381.364 47.3646H383.706L384.435 89.6526H382.045C380.217 82.892 378.64 77.722 377.314 74.1428C376.052 70.6826 374.47 67.3475 372.588 64.1808C369.266 58.645 365.606 54.5428 361.607 51.8743C357.505 49.1837 352.684 47.7927 347.777 47.8835C340.186 47.8835 334.188 50.5838 329.783 55.9844C327.886 58.3025 326.422 60.9411 325.457 63.7751C324.426 66.6466 323.893 69.6726 323.88 72.7231C323.88 84.602 331.171 94.1664 345.752 101.416L360.09 108.67C371.142 114.146 379.108 120.189 383.987 126.799C389.563 134.196 392.351 142.8 392.351 152.61C392.381 159.038 391.111 165.405 388.617 171.33C385.084 179.621 379.787 186.018 372.725 190.52C365.664 195.022 357.346 197.271 347.771 197.267C339.059 197.276 330.447 195.423 322.512 191.832C318.302 189.916 315.789 188.814 314.973 188.528C314.084 188.235 313.154 188.092 312.218 188.104C308.961 188.104 306.72 189.808 305.497 193.216H303.126Z" fill="#262626"/><path d="M0.00585938 26.2354L177.637 25.7522" stroke="#272525" stroke-width="5" stroke-miterlimit="10"/><path d="M229.673 26.8558L398.994 26.2414" stroke="#272525" stroke-width="5" stroke-miterlimit="10"/><path d="M0.00585938 215.509H389.692" stroke="#272525" stroke-width="5" stroke-miterlimit="10"/><path d="M229.702 26.8499C229.732 32.1948 228.172 37.4282 225.219 41.8868C222.267 46.3453 218.055 49.8283 213.118 51.8942C208.181 53.9602 202.741 54.516 197.487 53.4914C192.234 52.4668 187.403 49.9078 183.607 46.1387C179.811 42.3697 177.222 37.5603 176.167 32.3202C175.111 27.08 175.638 21.645 177.68 16.704C179.721 11.7629 183.186 7.53835 187.635 4.56568C192.084 1.593 197.316 0.00605181 202.669 0.00597024C209.819 -0.0130418 216.683 2.80427 221.753 7.83831C226.822 12.8724 229.682 19.7109 229.702 26.8499ZM202.454 37.0446C210.926 37.0446 219.971 31.3 223.746 28.6096C223.99 28.4647 224.194 28.2622 224.341 28.0201C224.488 27.7779 224.573 27.5034 224.589 27.2208C224.605 26.9381 224.551 26.6558 224.432 26.3987C224.313 26.1416 224.133 25.9176 223.907 25.7463C220.425 22.7994 211.822 16.5478 201.767 16.8281C191.82 17.1026 184.083 22.9306 180.911 25.7463C180.693 25.9198 180.521 26.1436 180.409 26.3983C180.297 26.6531 180.248 26.9312 180.268 27.2087C180.287 27.4863 180.374 27.755 180.52 27.9918C180.667 28.2285 180.868 28.4262 181.108 28.5679C184.818 31.2463 193.917 37.0446 202.424 37.0446H202.454Z" fill="#262626"/><path d="M202.717 35.9827C207.554 35.9827 211.475 31.8965 211.475 26.8558C211.475 21.8152 207.554 17.7289 202.717 17.7289C197.88 17.7289 193.959 21.8152 193.959 26.8558C193.959 31.8965 197.88 35.9827 202.717 35.9827Z" fill="url(#paint0_linear_40_109)" stroke="#272525" stroke-width="3" stroke-miterlimit="10"/><g style="mix-blend-mode:darken" opacity="0.28"><path d="M202.717 35.9827C207.554 35.9827 211.475 31.8965 211.475 26.8558C211.475 21.8152 207.554 17.7289 202.717 17.7289C197.88 17.7289 193.959 21.8152 193.959 26.8558C193.959 31.8965 197.88 35.9827 202.717 35.9827Z" fill="#272525"/><path d="M202.717 35.9827C207.554 35.9827 211.475 31.8965 211.475 26.8558C211.475 21.8152 207.554 17.7289 202.717 17.7289C197.88 17.7289 193.959 21.8152 193.959 26.8558C193.959 31.8965 197.88 35.9827 202.717 35.9827Z" stroke="#272525" stroke-width="3" stroke-miterlimit="10"/></g><path d="M202.717 32.5766C205.749 32.5766 208.207 30.0153 208.207 26.8558C208.207 23.6964 205.749 21.1351 202.717 21.1351C199.685 21.1351 197.227 23.6964 197.227 26.8558C197.227 30.0153 199.685 32.5766 202.717 32.5766Z" fill="#272525"/><path d="M199.61 24.6188C200.706 24.6188 201.594 23.6948 201.594 22.5548C201.594 21.4149 200.706 20.4908 199.61 20.4908C198.515 20.4908 197.627 21.4149 197.627 22.5548C197.627 23.6948 198.515 24.6188 199.61 24.6188Z" fill="#E0DBC0"/><path opacity="0.29" d="M205.883 33.7517C207.375 33.7517 208.584 32.4938 208.584 30.9421C208.584 29.3903 207.375 28.1324 205.883 28.1324C204.392 28.1324 203.183 29.3903 203.183 30.9421C203.183 32.4938 204.392 33.7517 205.883 33.7517Z" fill="#ABD5CB"/></g><defs><linearGradient id="paint0_linear_40_109" x1="193.959" y1="26.8558" x2="211.475" y2="26.8558" gradientUnits="userSpaceOnUse"><stop stop-color="#E40303"/><stop offset="0.21" stop-color="#FF8C00"/><stop offset="0.46" stop-color="#FFED00"/><stop offset="0.61" stop-color="#008026"/><stop offset="0.81" stop-color="#24408E"/><stop offset="0.92" stop-color="#732982"/></linearGradient><clipPath id="clip0_40_109"><rect width="399" height="217" fill="white"/></clipPath></defs></svg>